<svg width="458" height="522" viewBox="0 0 458 522" fill="none" xmlns="http://www.w3.org/2000/svg">
<g clip-path="url(#clip0_5215_2101)">
<path d="M0.439941 0V331.37C0.439941 341.14 1.99002 366.79 16.4 393.92C35.33 429.58 68.6101 454.82 115.31 468.93C180.1 488.45 214.78 509.33 224.05 517.63L228.09 521.27L232.23 517.75C242.05 509.41 277.78 488.48 342.72 468.93C389.31 454.81 422.52 429.57 441.41 393.91C455.79 366.77 457.34 341.13 457.34 331.37V0H0.439941ZM444.97 239.63H388.55C369.35 235.53 350.28 231.43 331.99 224.48C340.4 225.11 348.71 226.11 356.97 227.41C365.3 228.72 373.65 229.42 382.07 229.01C398.9 228.2 411.35 218.13 416.08 201.11C391.75 204.13 367.58 205.29 343.01 203.18C344.68 203 346.36 202.86 348.03 202.64C364.38 200.46 380.87 198.95 396.7 194.02C415.8 188.07 427.86 171.54 426.09 153.74C400.27 166.51 373.38 175.61 345.34 181.34C348.84 179.31 352.56 177.86 356.26 176.38C373.46 169.48 390.61 162.44 406.11 152.11C423.73 140.38 430.3 123.73 427.7 101.34C402.98 125.37 375.29 142.54 345.83 157.09C353.32 150.94 361.29 145.49 369.15 139.86C382.35 130.4 395.12 120.43 406.18 108.43C421.8 91.47 423.89 72.13 416.61 49.39C407.67 69.29 395.13 84.65 380.92 98.79C356.9 122.69 329.29 141.64 299.46 157.45C295.13 159.75 293.51 161.86 293.81 167.3C294.44 178.53 290.68 189.58 280.5 194.78C272.04 199.09 270.45 204.12 272.08 212.07C272.12 212.26 271.43 212.59 270.7 213.16C267.64 202.46 261 194.18 254.66 185.54C244.48 171.67 250.88 157.96 267.41 156.19C271.8 155.72 274.67 158.75 278.4 159.67C280.51 148.49 278.03 144.83 267.65 142.75C264.7 142.16 261.4 142.94 259.21 139.48C254.83 132.55 247.87 130.95 240.22 131.63C237.83 131.84 235.44 132.15 233.04 132.45V12.37H444.96V239.62L444.97 239.63ZM223.05 12.37V133.5C215.68 133.92 208.16 133.22 200.34 128.87C205.08 137.42 206.27 149.39 204.25 156.99C203.44 160.05 202.79 163.2 202.49 166.35C200.6 185.94 197.6 193.93 184.58 211.79C188.29 202.8 183.42 199.24 176.61 195.01C167.19 189.15 162.89 179.18 163.82 168.09C164.33 161.99 162.01 159.54 157.17 156.9C146.01 150.8 134.81 144.6 124.38 137.36C91.33 114.42 60.45 89.23 41.92 52.16C41.67 51.66 40.53 51.6 39.78 51.32C33.01 81.78 37.18 96.11 59.3 116.05C67.46 123.41 76.16 130.2 84.9 136.87C93.78 143.65 103.01 149.98 112.08 156.5C81.9 142.64 54.2 125.1 29.36 100.59C29.36 107.97 28.72 113.42 29.48 118.69C31.93 135.7 41.59 147.67 56.51 155.8C74.52 165.62 93.78 172.65 112.36 181.28C84.2 175.34 57.0099 166.5 29.9399 153.37C31.9099 169.71 37.54 182.13 50.96 189.85C58.85 194.39 67.78 196 76.62 197.52C89.03 199.64 101.5 201.44 113.94 203.38C89.6099 205.1 65.46 204.6 41.08 200.86C48.52 222.6 64.03 231.17 89.66 228.3C102.15 226.9 114.62 225.34 127.1 223.86C108.44 231.21 89.1 235.79 69.24 239.62H12.83V12.37H223.07H223.05ZM27.33 388.11C14.23 363.43 12.8101 340.2 12.8101 331.36V249.61H71.99C82.02 258.26 92.8799 259.69 106.94 254.79C111.68 253.14 116.39 251.39 121.09 249.61H128.13C117.28 257.19 105.58 263.19 93.5699 269.32C118.83 290.28 135.91 269.38 155.07 258.79C146.41 269.47 136.45 278.61 125.74 287.77C149.38 299.36 161.38 283.4 174.22 269.26C171.25 279.08 165.17 286.7 159.24 295.38C173.03 297.16 181.85 291.79 187.9 279.6C188.79 282.3 189.46 283.82 189.79 285.41C190.25 287.66 190.82 289.83 191.46 291.96C179.99 313.53 160.4 338.98 148.93 348.93C139.89 356.77 140.41 356.58 147.36 366.08C151.68 371.99 154.31 370.85 158.43 366.23C166.22 357.48 174.44 349.11 182.47 340.58C177.28 350.86 170.9 360.29 164.17 369.46C157.14 379.03 156.98 378.92 165.45 387.56C173.13 395.4 173.18 395.43 179.04 385.77C185.32 375.44 191.49 365.04 197.71 354.67C195.78 364.3 192.18 373.06 188.62 381.83C182.927 395.857 186.67 406.823 199.85 414.73C200.31 415.01 200.96 414.98 201.99 415.19C206.29 399.51 210.6 383.8 214.91 368.09C214.91 380.15 213.75 391.92 212.12 403.64C209.67 421.24 209.52 422.24 223.04 430.51V501.56C208.97 492.23 177.53 474.75 118.87 457.08C75.45 443.95 44.6499 420.75 27.3199 388.11M430.48 388.12C413.19 420.76 382.46 443.96 339.15 457.08C279.4 475.08 247.16 492.83 233.05 502V431.69C241.85 427.33 246.34 418.69 245.1 408.06C243.53 394.59 242.21 381.1 240.78 367.61C245.79 381.68 249.37 395.95 253.17 410.16C253.71 412.17 253.5 416.85 257.42 414.53C263.6 410.87 270.13 406.93 274.6 401.53C277.91 397.53 272.48 392.63 270.87 388.22C266.84 377.17 262.26 366.32 257.9 355.39C266.44 366.4 273.29 378.11 280.36 389.7C281.48 391.54 282.39 395.93 285.71 393.2C290.6 389.2 295.89 384.88 298.75 379.49C300.61 375.98 295.02 372.36 292.68 368.89C286.42 359.61 279.93 350.49 273.53 341.31C281.44 347.36 287.84 354.45 294.31 361.46C305.58 373.69 305.95 373.57 315.49 359.68C317.19 357.2 317.26 356.01 314.86 354.15C300.56 343.1 278.43 313.43 266.29 289.9C267.23 287.48 268.17 285.05 269.16 282.63C279.22 295.07 286.03 297.93 297 294.37C294.28 290.28 291.48 286.28 288.92 282.14C286.41 278.08 283.72 274.05 282.38 268.23C308.54 294.11 313.93 296.27 331.13 287.73C321.08 278.44 310.6 269.83 302.46 258.9C310.19 263.44 317.34 268.72 324.86 273.41C338.52 281.95 350.16 280.7 363.22 269.47C351.14 263.37 339.41 256.88 328.13 249.63H336.91C337.37 249.8 337.83 249.97 338.29 250.13C344.8 252.48 351.27 255.16 357.98 256.74C368.64 259.25 378.34 256.64 385.9 249.63H444.98V331.38C444.98 340.22 443.57 363.45 430.49 388.13" fill="#29305A"/>
</g>
<defs>
<clipPath id="clip0_5215_2101">
<rect width="458" height="522" fill="white"/>
</clipPath>
</defs>
</svg>
