<svg width="1288" height="522" viewBox="0 0 1288 522" fill="none" xmlns="http://www.w3.org/2000/svg">
<g clip-path="url(#clip0_5128_1497)">
<path d="M0.439941 0V331.37C0.439941 341.14 1.99002 366.79 16.4 393.92C35.33 429.58 68.6101 454.82 115.31 468.93C180.1 488.45 214.78 509.33 224.05 517.63L228.09 521.27L232.23 517.75C242.05 509.41 277.78 488.48 342.72 468.93C389.31 454.81 422.52 429.57 441.41 393.91C455.79 366.77 457.34 341.13 457.34 331.37V0H0.439941ZM444.97 239.63H388.55C369.35 235.53 350.28 231.43 331.99 224.48C340.4 225.11 348.71 226.11 356.97 227.41C365.3 228.72 373.65 229.42 382.07 229.01C398.9 228.2 411.35 218.13 416.08 201.11C391.75 204.13 367.58 205.29 343.01 203.18C344.68 203 346.36 202.86 348.03 202.64C364.38 200.46 380.87 198.95 396.7 194.02C415.8 188.07 427.86 171.54 426.09 153.74C400.27 166.51 373.38 175.61 345.34 181.34C348.84 179.31 352.56 177.86 356.26 176.38C373.46 169.48 390.61 162.44 406.11 152.11C423.73 140.38 430.3 123.73 427.7 101.34C402.98 125.37 375.29 142.54 345.83 157.09C353.32 150.94 361.29 145.49 369.15 139.86C382.35 130.4 395.12 120.43 406.18 108.43C421.8 91.47 423.89 72.13 416.61 49.39C407.67 69.29 395.13 84.65 380.92 98.79C356.9 122.69 329.29 141.64 299.46 157.45C295.13 159.75 293.51 161.86 293.81 167.3C294.44 178.53 290.68 189.58 280.5 194.78C272.04 199.09 270.45 204.12 272.08 212.07C272.12 212.26 271.43 212.59 270.7 213.16C267.64 202.46 261 194.18 254.66 185.54C244.48 171.67 250.88 157.96 267.41 156.19C271.8 155.72 274.67 158.75 278.4 159.67C280.51 148.49 278.03 144.83 267.65 142.75C264.7 142.16 261.4 142.94 259.21 139.48C254.83 132.55 247.87 130.95 240.22 131.63C237.83 131.84 235.44 132.15 233.04 132.45V12.37H444.96V239.62L444.97 239.63ZM223.05 12.37V133.5C215.68 133.92 208.16 133.22 200.34 128.87C205.08 137.42 206.27 149.39 204.25 156.99C203.44 160.05 202.79 163.2 202.49 166.35C200.6 185.94 197.6 193.93 184.58 211.79C188.29 202.8 183.42 199.24 176.61 195.01C167.19 189.15 162.89 179.18 163.82 168.09C164.33 161.99 162.01 159.54 157.17 156.9C146.01 150.8 134.81 144.6 124.38 137.36C91.33 114.42 60.45 89.23 41.92 52.16C41.67 51.66 40.53 51.6 39.78 51.32C33.01 81.78 37.18 96.11 59.3 116.05C67.46 123.41 76.16 130.2 84.9 136.87C93.78 143.65 103.01 149.98 112.08 156.5C81.9 142.64 54.2 125.1 29.36 100.59C29.36 107.97 28.72 113.42 29.48 118.69C31.93 135.7 41.59 147.67 56.51 155.8C74.52 165.62 93.78 172.65 112.36 181.28C84.2 175.34 57.0099 166.5 29.9399 153.37C31.9099 169.71 37.54 182.13 50.96 189.85C58.85 194.39 67.78 196 76.62 197.52C89.03 199.64 101.5 201.44 113.94 203.38C89.6099 205.1 65.46 204.6 41.08 200.86C48.52 222.6 64.03 231.17 89.66 228.3C102.15 226.9 114.62 225.34 127.1 223.86C108.44 231.21 89.1 235.79 69.24 239.62H12.83V12.37H223.07H223.05ZM27.33 388.11C14.23 363.43 12.8101 340.2 12.8101 331.36V249.61H71.99C82.02 258.26 92.8799 259.69 106.94 254.79C111.68 253.14 116.39 251.39 121.09 249.61H128.13C117.28 257.19 105.58 263.19 93.5699 269.32C118.83 290.28 135.91 269.38 155.07 258.79C146.41 269.47 136.45 278.61 125.74 287.77C149.38 299.36 161.38 283.4 174.22 269.26C171.25 279.08 165.17 286.7 159.24 295.38C173.03 297.16 181.85 291.79 187.9 279.6C188.79 282.3 189.46 283.82 189.79 285.41C190.25 287.66 190.82 289.83 191.46 291.96C179.99 313.53 160.4 338.98 148.93 348.93C139.89 356.77 140.41 356.58 147.36 366.08C151.68 371.99 154.31 370.85 158.43 366.23C166.22 357.48 174.44 349.11 182.47 340.58C177.28 350.86 170.9 360.29 164.17 369.46C157.14 379.03 156.98 378.92 165.45 387.56C173.13 395.4 173.18 395.43 179.04 385.77C185.32 375.44 191.49 365.04 197.71 354.67C195.78 364.3 192.18 373.06 188.62 381.83C182.927 395.857 186.67 406.823 199.85 414.73C200.31 415.01 200.96 414.98 201.99 415.19C206.29 399.51 210.6 383.8 214.91 368.09C214.91 380.15 213.75 391.92 212.12 403.64C209.67 421.24 209.52 422.24 223.04 430.51V501.56C208.97 492.23 177.53 474.75 118.87 457.08C75.45 443.95 44.6499 420.75 27.3199 388.11M430.48 388.12C413.19 420.76 382.46 443.96 339.15 457.08C279.4 475.08 247.16 492.83 233.05 502V431.69C241.85 427.33 246.34 418.69 245.1 408.06C243.53 394.59 242.21 381.1 240.78 367.61C245.79 381.68 249.37 395.95 253.17 410.16C253.71 412.17 253.5 416.85 257.42 414.53C263.6 410.87 270.13 406.93 274.6 401.53C277.91 397.53 272.48 392.63 270.87 388.22C266.84 377.17 262.26 366.32 257.9 355.39C266.44 366.4 273.29 378.11 280.36 389.7C281.48 391.54 282.39 395.93 285.71 393.2C290.6 389.2 295.89 384.88 298.75 379.49C300.61 375.98 295.02 372.36 292.68 368.89C286.42 359.61 279.93 350.49 273.53 341.31C281.44 347.36 287.84 354.45 294.31 361.46C305.58 373.69 305.95 373.57 315.49 359.68C317.19 357.2 317.26 356.01 314.86 354.15C300.56 343.1 278.43 313.43 266.29 289.9C267.23 287.48 268.17 285.05 269.16 282.63C279.22 295.07 286.03 297.93 297 294.37C294.28 290.28 291.48 286.28 288.92 282.14C286.41 278.08 283.72 274.05 282.38 268.23C308.54 294.11 313.93 296.27 331.13 287.73C321.08 278.44 310.6 269.83 302.46 258.9C310.19 263.44 317.34 268.72 324.86 273.41C338.52 281.95 350.16 280.7 363.22 269.47C351.14 263.37 339.41 256.88 328.13 249.63H336.91C337.37 249.8 337.83 249.97 338.29 250.13C344.8 252.48 351.27 255.16 357.98 256.74C368.64 259.25 378.34 256.64 385.9 249.63H444.98V331.38C444.98 340.22 443.57 363.45 430.49 388.13" fill="#F1CB3B"/>
<path d="M545.12 214.97V206.88L554.9 205.36C557.03 205.02 558.44 204.29 559.11 203.17C559.78 202.05 560.12 199.91 560.12 196.76V114.5C560.12 111.69 559.75 109.75 559.02 108.68C558.29 107.61 556.8 106.91 554.55 106.57L545.11 105.05V96.96H588.09C598.09 96.96 606.3 97.97 612.7 99.99C619.11 102.01 623.88 105.08 627.03 109.18C630.17 113.28 631.75 118.53 631.75 124.94C631.75 129.1 630.71 133 628.63 136.65C626.55 140.3 623.68 143.45 620.03 146.09C616.38 148.73 612.14 150.61 607.3 151.74V152.58C617.53 153.48 625.28 156.37 630.56 161.26C635.84 166.15 638.48 172.86 638.48 181.4C638.48 188.48 636.54 194.52 632.66 199.52C628.78 204.52 623.19 208.34 615.89 210.98C608.58 213.62 599.65 214.94 589.09 214.94H545.09L545.12 214.97ZM586.08 149.4C591.92 149.4 596.89 148.47 601 146.62C605.1 144.77 608.25 142.04 610.44 138.44C612.63 134.84 613.73 130.58 613.73 125.63C613.73 120.68 612.8 117.12 610.95 114.25C609.1 111.38 606.2 109.31 602.27 108.01C598.33 106.72 593.11 106.07 586.59 106.07H576.81V149.05C577.93 149.16 579.22 149.25 580.69 149.3C582.15 149.36 583.95 149.38 586.08 149.38V149.4ZM588.78 205.7C595.75 205.7 601.56 204.75 606.23 202.83C610.89 200.92 614.43 198.14 616.85 194.49C619.26 190.84 620.47 186.31 620.47 180.92C620.47 175.86 619.29 171.65 616.93 168.28C614.57 164.91 611.11 162.38 606.56 160.69C602.01 159 596.3 158.16 589.45 158.16C583.83 158.16 579.62 158.39 576.81 158.83V204.85C578.04 205.08 579.73 205.27 581.86 205.44C583.99 205.61 586.3 205.69 588.77 205.69L588.78 205.7Z" fill="#F1CB3B"/>
<path d="M656.37 214.97V206.88L666.82 205.36C668.95 205.02 670.36 204.29 671.03 203.17C671.71 202.05 672.04 199.91 672.04 196.76V114.5C672.04 111.58 671.67 109.61 670.95 108.6C670.22 107.59 668.73 106.91 666.48 106.58L656.37 105.06V96.97H704.41V105.06L693.79 106.58C691.77 106.81 690.42 107.54 689.74 108.77C689.07 110.01 688.73 112.14 688.73 115.18V197.44C688.73 200.25 689.09 202.19 689.83 203.25C690.56 204.32 691.99 205.02 694.13 205.36L704.41 206.88V214.97H656.37Z" fill="#F1CB3B"/>
<path d="M815.49 217.33C811.45 217.33 808.02 216.68 805.21 215.39C802.4 214.1 799.87 211.88 797.62 208.73C795.37 205.59 793.07 201.26 790.71 195.75L782.62 176.37C781.04 172.66 779.58 169.69 778.24 167.44C776.89 165.19 775.2 163.54 773.18 162.47C771.16 161.4 768.29 160.87 764.58 160.87C763.12 160.87 761.77 160.9 760.54 160.95C759.3 161.01 758.12 161.15 757 161.37V197.11C757 200.03 757.42 202.11 758.26 203.35C759.1 204.59 760.76 205.32 763.23 205.54L775.03 206.89V214.98H725.3V206.89L735.08 205.37C737.21 205.03 738.62 204.3 739.29 203.18C739.96 202.06 740.3 199.92 740.3 196.77V114.51C740.3 111.7 739.93 109.76 739.2 108.69C738.47 107.62 736.98 106.92 734.73 106.58L725.29 105.06V96.97H767.6C775.02 96.97 781.56 97.62 787.24 98.91C792.91 100.2 797.63 102.11 801.4 104.64C805.16 107.17 808.03 110.32 810 114.08C811.96 117.85 812.95 122.2 812.95 127.14C812.95 130.06 812.47 132.9 811.52 135.65C810.56 138.4 809.22 140.99 807.48 143.4C805.74 145.82 803.63 148.01 801.16 149.97C798.69 151.94 795.99 153.62 793.07 155.03C790.15 156.44 787 157.42 783.63 157.98V158.49C787.9 159.73 791.33 161.44 793.91 163.63C796.49 165.82 798.74 169.22 800.65 173.83L806.55 187.65C808.24 191.47 809.75 194.76 811.1 197.51C812.45 200.26 814.05 202.37 815.9 203.83C817.76 205.29 820.2 206.02 823.23 206.02C824.24 206.02 825.31 205.91 826.43 205.68C827.55 205.46 829.02 205.06 830.81 204.5L832.5 210.57C830.14 212.82 827.55 214.51 824.75 215.63C821.94 216.75 818.85 217.32 815.48 217.32L815.49 217.33ZM766.44 152.77C772.51 152.77 777.65 151.82 781.86 149.9C786.07 147.99 789.3 145.18 791.55 141.47C793.8 137.76 794.92 133.32 794.92 128.15C794.92 122.98 793.91 118.79 791.88 115.59C789.85 112.39 786.77 110 782.61 108.43C778.45 106.86 773.06 106.07 766.43 106.07H756.99V152.42C759.12 152.53 760.95 152.62 762.47 152.67C763.99 152.73 765.31 152.75 766.43 152.75L766.44 152.77Z" fill="#F1CB3B"/>
<path d="M847.52 214.97V206.88L857.3 205.36C859.43 205.02 860.84 204.29 861.51 203.17C862.18 202.05 862.52 199.91 862.52 196.76V114.5C862.52 111.69 862.15 109.75 861.42 108.68C860.69 107.61 859.2 106.91 856.95 106.57L847.51 105.05V96.96H895.89C903.87 96.96 911.11 97.72 917.63 99.24C924.15 100.76 929.88 103.03 934.82 106.07C939.76 109.1 943.92 112.87 947.29 117.36C950.66 121.86 953.22 127 954.96 132.78C956.7 138.57 957.57 145.06 957.57 152.25C957.57 162.03 956.08 170.79 953.1 178.55C950.12 186.3 945.77 192.91 940.04 198.36C934.31 203.81 927.34 207.94 919.14 210.75C910.93 213.56 901.61 214.96 891.16 214.96H847.5L847.52 214.97ZM891.34 205.7C899.65 205.7 906.82 204.66 912.83 202.58C918.84 200.5 923.84 197.33 927.83 193.06C931.82 188.79 934.77 183.37 936.68 176.79C938.59 170.22 939.55 162.49 939.55 153.61C939.55 143.27 937.84 134.56 934.41 127.48C930.98 120.4 925.92 115.06 919.24 111.47C912.55 107.88 904.32 106.08 894.54 106.08H879.2V204.86C880.43 205.09 882.23 205.28 884.59 205.45C886.95 205.62 889.2 205.7 891.33 205.7H891.34Z" fill="#F1CB3B"/>
<path d="M1019.28 217.33C1013.55 217.33 1007.96 216.32 1002.51 214.3C997.06 212.28 992.54 209.53 988.94 206.04L986.24 215.98H978.82L975.45 179.57L985.06 178.73C986.75 183.34 988.71 187.38 990.96 190.87C993.21 194.35 995.76 197.25 998.63 199.55C1001.5 201.85 1004.61 203.6 1007.99 204.78C1011.36 205.96 1014.96 206.55 1018.78 206.55C1023.5 206.55 1027.49 205.79 1030.75 204.27C1034.01 202.75 1036.48 200.54 1038.17 197.61C1039.86 194.69 1040.7 191.2 1040.7 187.16C1040.7 183.12 1039.86 179.44 1038.17 176.46C1036.48 173.48 1033.7 170.84 1029.83 168.54C1025.95 166.24 1020.75 164.07 1014.24 162.05C1007.84 160.03 1002.44 157.89 998.06 155.64C993.68 153.39 990.14 150.92 987.44 148.22C984.74 145.52 982.78 142.43 981.54 138.95C980.3 135.47 979.69 131.53 979.69 127.15C979.69 123.22 980.25 119.59 981.38 116.28C982.5 112.97 984.1 109.99 986.18 107.35C988.26 104.71 990.79 102.43 993.77 100.52C996.75 98.6101 1000.09 97.1501 1003.8 96.1401C1007.51 95.1301 1011.5 94.6201 1015.77 94.6201C1020.38 94.6201 1024.9 95.4101 1029.34 96.9801C1033.78 98.5501 1037.57 100.69 1040.72 103.39L1042.91 94.6201H1050.83L1054.54 128.67L1045.1 130.02C1043.41 124.06 1041.22 119.18 1038.53 115.35C1035.83 111.53 1032.66 108.67 1029.01 106.75C1025.36 104.84 1021.11 103.88 1016.28 103.88C1010.21 103.88 1005.32 105.57 1001.62 108.94C997.91 112.31 996.06 116.81 996.06 122.42C996.06 126.13 996.87 129.33 998.51 132.03C1000.14 134.73 1002.86 137.17 1006.68 139.36C1010.5 141.55 1015.67 143.77 1022.19 146.02C1028.6 148.16 1034.05 150.4 1038.54 152.76C1043.03 155.12 1046.63 157.68 1049.33 160.43C1052.03 163.18 1053.99 166.25 1055.23 169.62C1056.46 172.99 1057.09 176.87 1057.09 181.25C1057.09 186.53 1056.16 191.36 1054.31 195.75C1052.45 200.13 1049.84 203.95 1046.47 207.21C1043.1 210.47 1039.11 212.97 1034.5 214.71C1029.89 216.45 1024.83 217.32 1019.33 217.32L1019.28 217.33Z" fill="#F1CB3B"/>
<path d="M1077.26 214.97V206.88L1087.04 205.36C1089.17 205.02 1090.58 204.29 1091.25 203.17C1091.93 202.05 1092.26 199.91 1092.26 196.76V114.5C1092.26 111.58 1091.89 109.61 1091.17 108.6C1090.44 107.59 1088.95 106.91 1086.7 106.58L1077.26 105.06V96.97H1155.3L1161.54 124.45L1152.78 127.32C1151.09 122.83 1149.46 119.2 1147.89 116.45C1146.31 113.7 1144.57 111.56 1142.66 110.04C1140.75 108.52 1138.39 107.49 1135.58 106.92C1132.77 106.36 1129.34 106.08 1125.3 106.08H1108.95V149.74H1123.62C1127.66 149.74 1130.61 149.49 1132.47 148.98C1134.32 148.47 1135.67 147.27 1136.51 145.36C1137.35 143.45 1138.28 140.3 1139.29 135.92L1147.04 134.91V173.17L1139.29 174.52C1138.62 170.14 1137.86 166.93 1137.01 164.91C1136.17 162.89 1134.73 161.6 1132.71 161.03C1130.69 160.47 1127.65 160.19 1123.61 160.19H1108.94V205.87H1130.69C1134.73 205.87 1138.11 205.56 1140.8 204.94C1143.5 204.32 1145.77 203.25 1147.63 201.74C1149.48 200.22 1151.06 198.01 1152.35 195.08C1153.64 192.16 1154.85 188.45 1155.97 183.95H1165.24L1161.2 214.97H1077.25H1077.26Z" fill="#F1CB3B"/>
<path d="M1206.89 214.97V206.88L1217.34 205.36C1219.47 205.02 1220.88 204.29 1221.55 203.17C1222.22 202.05 1222.56 199.91 1222.56 196.76V165.58L1191.04 115.35C1189.58 112.99 1188.17 111.08 1186.83 109.62C1185.48 108.16 1183.51 107.2 1180.93 106.75L1174.69 105.57V96.97H1221.72V105.06L1212.45 106.24C1209.98 106.58 1208.43 107.45 1207.82 108.85C1207.2 110.26 1207.62 112.19 1209.08 114.66L1233.86 154.61H1234.7L1258.13 115.5C1259.59 113.14 1260.09 111.23 1259.65 109.77C1259.2 108.31 1257.68 107.3 1255.1 106.74L1247.35 104.89V96.97H1287.97V105.06L1279.71 106.41C1277.91 106.75 1276.42 107.48 1275.24 108.6C1274.06 109.72 1272.35 112.08 1270.1 115.68L1239.25 165.74V197.43C1239.25 200.24 1239.61 202.18 1240.35 203.24C1241.08 204.31 1242.51 205.01 1244.65 205.35L1254.93 206.87V214.96H1206.89V214.97Z" fill="#F1CB3B"/>
<path d="M619.55 338.99V312.87H594.42V306.52H626.33V341.82C623.13 344.64 618.61 347.28 612.78 349.73C606.94 352.18 599.41 353.4 590.19 353.4C580.97 353.4 573.2 351.3 566.33 347.12C559.46 342.93 554.09 337.12 550.23 329.68C546.37 322.24 544.44 313.68 544.44 303.98C544.44 297.11 545.55 290.69 547.76 284.71C549.97 278.73 553.1 273.51 557.15 269.04C561.2 264.57 566.02 261.06 571.62 258.52C577.22 255.98 583.41 254.71 590.19 254.71C595.74 254.71 600.54 255.44 604.59 256.9C608.64 258.36 612 260.15 614.69 262.27C617.37 264.39 619.49 266.41 621.04 268.34C622.59 270.27 623.65 271.71 624.22 272.65L619.14 276.18C618.58 275.43 617.63 274.25 616.32 272.65C615 271.05 613.19 269.36 610.88 267.57C608.57 265.78 605.77 264.25 602.48 262.98C599.19 261.71 595.33 261.07 590.9 261.07C582.71 261.07 575.7 262.98 569.86 266.79C564.02 270.6 559.55 275.73 556.45 282.18C553.34 288.63 551.79 295.9 551.79 303.99C551.79 312.08 553.34 319.26 556.45 325.8C559.56 332.34 563.98 337.52 569.72 341.33C575.46 345.14 582.29 347.05 590.19 347.05C597.44 347.05 603.39 346.25 608.05 344.65C612.71 343.05 616.54 341.17 619.56 339L619.55 338.99Z" fill="#F1CB3B"/>
<path d="M720.37 351.13V256.95H748.75C756.94 256.95 763.48 258.1 768.37 260.41C773.26 262.72 776.77 265.87 778.89 269.87C781.01 273.87 782.07 278.46 782.07 283.64C782.07 289.76 780.49 295.2 777.34 299.95C774.19 304.7 769.17 307.88 762.3 309.48L784.75 351.13H776.98L755.1 310.32H727.14V351.13H720.36H720.37ZM727.14 303.97H751.57C767.1 303.97 774.87 297.19 774.87 283.64C774.87 276.86 772.8 271.78 768.66 268.39C764.52 265 758.54 263.31 750.73 263.31H727.15V303.97H727.14Z" fill="#F1CB3B"/>
<path d="M913.94 353.39C907.16 353.39 900.93 352.14 895.23 349.65C889.53 347.16 884.59 343.65 880.4 339.13C876.21 334.61 872.96 329.37 870.66 323.39C868.35 317.41 867.2 310.99 867.2 304.12C867.2 297.25 868.35 290.68 870.66 284.71C872.97 278.73 876.21 273.51 880.4 269.04C884.59 264.57 889.53 261.06 895.23 258.52C900.92 255.98 907.16 254.71 913.94 254.71C920.72 254.71 926.95 255.98 932.65 258.52C938.35 261.06 943.29 264.57 947.48 269.04C951.67 273.51 954.91 278.74 957.22 284.71C959.52 290.69 960.68 297.16 960.68 304.12C960.68 311.08 959.53 317.42 957.22 323.39C954.91 329.37 951.67 334.62 947.48 339.13C943.29 343.65 938.35 347.16 932.65 349.65C926.95 352.14 920.72 353.39 913.94 353.39ZM913.94 347.03C921.94 347.03 928.88 345.1 934.77 341.24C940.65 337.38 945.24 332.2 948.54 325.71C951.83 319.21 953.48 312.01 953.48 304.11C953.48 296.21 951.83 288.86 948.54 282.37C945.24 275.87 940.66 270.7 934.77 266.84C928.89 262.98 921.94 261.05 913.94 261.05C905.94 261.05 899.12 262.98 893.19 266.84C887.26 270.7 882.65 275.88 879.35 282.37C876.05 288.86 874.41 296.11 874.41 304.11C874.41 312.11 876.06 319.22 879.35 325.71C882.64 332.2 887.26 337.38 893.19 341.24C899.12 345.1 906.04 347.03 913.94 347.03Z" fill="#F1CB3B"/>
<path d="M1050.62 313.57V256.95H1057.4V310.04C1057.4 317.19 1058.22 323.55 1059.87 329.1C1061.52 334.66 1064.46 339.03 1068.7 342.23C1072.93 345.43 1078.91 347.03 1086.63 347.03C1094.35 347.03 1100.44 345.43 1104.63 342.23C1108.82 339.03 1111.74 334.65 1113.38 329.1C1115.02 323.55 1115.85 317.19 1115.85 310.04V256.95H1122.63V313.57C1122.63 321.01 1121.52 327.74 1119.31 333.76C1117.1 339.78 1113.38 344.56 1108.16 348.09C1102.94 351.62 1095.76 353.38 1086.63 353.38C1077.5 353.38 1070.32 351.61 1065.1 348.09C1059.88 344.57 1056.16 339.78 1053.95 333.76C1051.74 327.74 1050.63 321.01 1050.63 313.57H1050.62Z" fill="#F1CB3B"/>
<path d="M1216.66 351.13V256.95H1245.6C1253.79 256.95 1260.29 258.15 1265.09 260.55C1269.89 262.95 1273.3 266.18 1275.33 270.22C1277.35 274.27 1278.37 278.88 1278.37 284.06C1278.37 289.24 1277.36 293.73 1275.33 297.83C1273.3 301.92 1269.89 305.17 1265.09 307.57C1260.29 309.97 1253.8 311.17 1245.6 311.17H1223.43V351.13H1216.65H1216.66ZM1223.44 304.82H1247.58C1263.2 304.82 1271.02 297.9 1271.02 284.06C1271.02 270.22 1263.21 263.3 1247.58 263.3H1223.44V304.81V304.82Z" fill="#F1CB3B"/>
</g>
<defs>
<clipPath id="clip0_5128_1497">
<rect width="1288" height="522" fill="white"/>
</clipPath>
</defs>
</svg>
