<svg width="834" height="121" viewBox="0 0 834 121" fill="none" xmlns="http://www.w3.org/2000/svg">
<path d="M792.819 119.068C783.841 119.068 776.114 117.25 769.637 113.613C763.197 109.939 758.235 104.75 754.75 98.0451C751.266 91.3027 749.523 83.3292 749.523 74.1247C749.523 65.1474 751.266 57.2686 754.75 50.4883C758.235 43.708 763.14 38.4239 769.466 34.636C775.83 30.8482 783.292 28.9542 791.853 28.9542C797.61 28.9542 802.97 29.8823 807.932 31.7383C812.932 33.5565 817.288 36.3027 821 39.9769C824.75 43.6512 827.667 48.2724 829.75 53.8406C831.834 59.3709 832.875 65.8482 832.875 73.2724V79.9201H759.182V64.9201H810.091C810.091 61.4353 809.334 58.3482 807.819 55.6588C806.303 52.9694 804.201 50.8671 801.512 49.3519C798.86 47.7989 795.773 47.0224 792.25 47.0224C788.576 47.0224 785.319 47.8747 782.478 49.5792C779.675 51.2459 777.478 53.4997 775.887 56.3406C774.296 59.1436 773.481 62.2686 773.444 65.7156V79.9769C773.444 84.2951 774.239 88.0262 775.83 91.1701C777.459 94.3141 779.75 96.7383 782.705 98.4429C785.659 100.147 789.163 101 793.216 101C795.906 101 798.368 100.621 800.603 99.8633C802.837 99.1057 804.75 97.9694 806.341 96.4542C807.932 94.9391 809.144 93.083 809.978 90.886L832.364 92.3633C831.228 97.7421 828.898 102.439 825.375 106.454C821.891 110.431 817.383 113.538 811.853 115.772C806.36 117.969 800.016 119.068 792.819 119.068Z" fill="white"/>
<path d="M698.571 119.068C689.632 119.068 681.943 117.174 675.503 113.386C669.102 109.56 664.177 104.257 660.73 97.4769C657.321 90.6966 655.617 82.8936 655.617 74.0679C655.617 65.1285 657.34 57.2876 660.787 50.5451C664.272 43.7648 669.215 38.4807 675.617 34.6929C682.018 30.8671 689.632 28.9542 698.458 28.9542C706.071 28.9542 712.738 30.3368 718.458 33.1019C724.177 35.8671 728.704 39.7497 732.037 44.7497C735.371 49.7497 737.208 55.6209 737.549 62.3633H714.708C714.064 58.0072 712.359 54.5035 709.594 51.8519C706.867 49.1626 703.287 47.8179 698.855 47.8179C695.105 47.8179 691.829 48.8406 689.026 50.886C686.261 52.8936 684.102 55.8292 682.549 59.6929C680.996 63.5565 680.219 68.2345 680.219 73.7269C680.219 79.2951 680.977 84.03 682.492 87.9315C684.045 91.833 686.223 94.8065 689.026 96.8519C691.829 98.8974 695.105 99.9201 698.855 99.9201C701.621 99.9201 704.102 99.352 706.299 98.2156C708.533 97.0792 710.371 95.4315 711.81 93.2724C713.287 91.0754 714.253 88.4429 714.708 85.3747H737.549C737.17 92.0413 735.352 97.9126 732.094 102.988C728.874 108.026 724.424 111.966 718.742 114.806C713.06 117.647 706.337 119.068 698.571 119.068Z" fill="white"/>
<path d="M583.813 66.9088V117.363H559.608V30.0906H582.677V45.4883H583.699C585.631 40.4126 588.87 36.3974 593.415 33.4429C597.961 30.4504 603.472 28.9542 609.949 28.9542C616.01 28.9542 621.294 30.28 625.802 32.9315C630.309 35.583 633.813 39.3709 636.313 44.2951C638.813 49.1815 640.063 55.0148 640.063 61.7951V117.363H615.858V66.1133C615.896 60.7724 614.533 56.6057 611.767 53.6133C609.002 50.583 605.195 49.0679 600.347 49.0679C597.089 49.0679 594.211 49.7686 591.711 51.1701C589.248 52.5716 587.317 54.6171 585.915 57.3065C584.551 59.958 583.851 63.1588 583.813 66.9088Z" fill="white"/>
<path d="M503.756 119.068C494.779 119.068 487.051 117.25 480.574 113.613C474.135 109.939 469.173 104.75 465.688 98.0451C462.203 91.3027 460.461 83.3292 460.461 74.1247C460.461 65.1474 462.203 57.2686 465.688 50.4883C469.173 43.708 474.078 38.4239 480.404 34.636C486.767 30.8482 494.229 28.9542 502.79 28.9542C508.548 28.9542 513.908 29.8823 518.87 31.7383C523.87 33.5565 528.226 36.3027 531.938 39.9769C535.688 43.6512 538.605 48.2724 540.688 53.8406C542.771 59.3709 543.813 65.8482 543.813 73.2724V79.9201H470.12V64.9201H521.029C521.029 61.4353 520.271 58.3482 518.756 55.6588C517.241 52.9694 515.139 50.8671 512.449 49.3519C509.798 47.7989 506.711 47.0224 503.188 47.0224C499.514 47.0224 496.256 47.8747 493.415 49.5792C490.612 51.2459 488.415 53.4997 486.824 56.3406C485.233 59.1436 484.419 62.2686 484.381 65.7156V79.9769C484.381 84.2951 485.176 88.0262 486.767 91.1701C488.396 94.3141 490.688 96.7383 493.642 98.4429C496.597 100.147 500.101 101 504.154 101C506.843 101 509.305 100.621 511.54 99.8633C513.775 99.1057 515.688 97.9694 517.279 96.4542C518.87 94.9391 520.082 93.083 520.915 90.886L543.302 92.3633C542.165 97.7421 539.836 102.439 536.313 106.454C532.828 110.431 528.32 113.538 522.79 115.772C517.298 117.969 510.953 119.068 503.756 119.068Z" fill="white"/>
<path d="M444.594 0.999634V117.363H420.39V0.999634H444.594Z" fill="white"/>
<path d="M401 0.999634V117.363H376.796V0.999634H401Z" fill="white"/>
<path d="M320.944 119.068C311.966 119.068 304.239 117.25 297.762 113.613C291.322 109.939 286.36 104.75 282.875 98.0451C279.391 91.3027 277.648 83.3292 277.648 74.1247C277.648 65.1474 279.391 57.2686 282.875 50.4883C286.36 43.708 291.266 38.4239 297.591 34.636C303.955 30.8482 311.417 28.9542 319.978 28.9542C325.735 28.9542 331.095 29.8823 336.057 31.7383C341.057 33.5565 345.413 36.3027 349.125 39.9769C352.875 43.6512 355.792 48.2724 357.875 53.8406C359.959 59.3709 361 65.8482 361 73.2724V79.9201H287.307V64.9201H338.216C338.216 61.4353 337.459 58.3482 335.944 55.6588C334.428 52.9694 332.326 50.8671 329.637 49.3519C326.985 47.7989 323.898 47.0224 320.375 47.0224C316.701 47.0224 313.444 47.8747 310.603 49.5792C307.8 51.2459 305.603 53.4997 304.012 56.3406C302.421 59.1436 301.606 62.2686 301.569 65.7156V79.9769C301.569 84.2951 302.364 88.0262 303.955 91.1701C305.584 94.3141 307.875 96.7383 310.83 98.4429C313.784 100.147 317.288 101 321.341 101C324.031 101 326.493 100.621 328.728 99.8633C330.962 99.1057 332.875 97.9694 334.466 96.4542C336.057 94.9391 337.269 93.083 338.103 90.886L360.489 92.3633C359.353 97.7421 357.023 102.439 353.5 106.454C350.016 110.431 345.508 113.538 339.978 115.772C334.485 117.969 328.141 119.068 320.944 119.068Z" fill="white"/>
<path d="M226.696 119.068C217.757 119.068 210.068 117.174 203.628 113.386C197.227 109.56 192.302 104.257 188.855 97.4769C185.446 90.6966 183.742 82.8936 183.742 74.0679C183.742 65.1285 185.465 57.2876 188.912 50.5451C192.397 43.7648 197.34 38.4807 203.742 34.6929C210.143 30.8671 217.757 28.9542 226.583 28.9542C234.196 28.9542 240.863 30.3368 246.583 33.1019C252.302 35.8671 256.829 39.7497 260.162 44.7497C263.496 49.7497 265.333 55.6209 265.674 62.3633H242.833C242.189 58.0072 240.484 54.5035 237.719 51.8519C234.992 49.1626 231.412 47.8179 226.98 47.8179C223.23 47.8179 219.954 48.8406 217.151 50.886C214.386 52.8936 212.227 55.8292 210.674 59.6929C209.121 63.5565 208.344 68.2345 208.344 73.7269C208.344 79.2951 209.102 84.03 210.617 87.9315C212.17 91.833 214.348 94.8065 217.151 96.8519C219.954 98.8974 223.23 99.9201 226.98 99.9201C229.746 99.9201 232.227 99.352 234.424 98.2156C236.658 97.0792 238.496 95.4315 239.935 93.2724C241.412 91.0754 242.378 88.4429 242.833 85.3747H265.674C265.295 92.0413 263.477 97.9126 260.219 102.988C256.999 108.026 252.549 111.966 246.867 114.806C241.185 117.647 234.462 119.068 226.696 119.068Z" fill="white"/>
<path d="M118.742 30.0906L134.765 60.6019L151.185 30.0906H176.015L150.73 73.7269L176.696 117.363H151.98L134.765 87.1928L117.833 117.363H92.8328L118.742 73.7269L93.7419 30.0906H118.742Z" fill="white"/>
<path d="M1.00037 117.363V0.999634H79.4095V21.2837H25.6026V49.011H75.3754V69.2951H25.6026V97.0792H79.6367V117.363H1.00037Z" fill="white"/>
<path d="M832.875 73.2725C832.875 65.8483 831.833 59.3711 829.75 53.8408C827.667 48.2726 824.75 43.6508 821 39.9766C817.52 36.5322 813.474 33.9031 808.862 32.0898L807.933 31.7383C802.97 29.8822 797.61 28.9541 791.853 28.9541C783.292 28.9541 775.829 30.8479 769.466 34.6357C763.14 38.4236 758.235 43.7081 754.75 50.4883C751.265 57.2686 749.523 65.1478 749.523 74.125L749.528 74.9844C749.634 83.8264 751.374 91.5134 754.75 98.0449C758.235 104.749 763.197 109.939 769.637 113.613C776.114 117.25 783.841 119.067 792.818 119.067C799.79 119.067 805.963 118.037 811.335 115.976L811.853 115.772C817.383 113.538 821.89 110.431 825.375 106.454C828.898 102.439 831.228 97.7421 832.364 92.3633L809.978 90.8857C809.144 93.0827 807.932 94.9389 806.341 96.4541C804.75 97.9692 802.837 99.1057 800.603 99.8633C798.368 100.621 795.905 101 793.216 101V100C795.811 100 798.163 99.634 800.281 98.916C802.389 98.2016 804.173 97.138 805.651 95.7305C807.126 94.3256 808.259 92.5982 809.043 90.5312L809.305 89.8398L810.044 89.8877L833.581 91.4414L833.343 92.5703C832.172 98.1114 829.766 102.965 826.127 107.112C822.527 111.221 817.884 114.413 812.228 116.699L812.224 116.701C806.591 118.954 800.116 120.067 792.818 120.067C783.705 120.067 775.802 118.221 769.147 114.485L769.142 114.481C762.532 110.71 757.435 105.378 753.863 98.5059L753.862 98.5039C750.29 91.5925 748.523 83.4555 748.523 74.125C748.523 65.0169 750.292 56.9761 753.861 50.0312C757.428 43.091 762.461 37.6655 768.952 33.7783L768.955 33.7764C775.496 29.883 783.141 27.9541 791.853 27.9541C797.719 27.9541 803.199 28.9003 808.282 30.8018C813.411 32.6678 817.886 35.4886 821.7 39.2627L822.061 39.6211C825.754 43.3498 828.624 47.98 830.686 53.4883C832.821 59.1559 833.875 65.7576 833.875 73.2725V80.9199H774.458C774.566 84.7105 775.331 87.9683 776.723 90.7188C778.267 93.6955 780.425 95.9725 783.205 97.5762C785.981 99.1777 789.305 99.9999 793.216 100V101L792.463 100.989C788.977 100.896 785.911 100.15 783.266 98.752L782.705 98.4424C779.751 96.7378 777.459 94.3138 775.83 91.1699C774.239 88.026 773.443 84.2947 773.443 79.9766V79.9199H832.875V73.2725ZM792.906 47.0312C796.157 47.1223 799.026 47.8957 801.512 49.3516C804.201 50.8667 806.303 52.9698 807.818 55.6592C809.333 58.3485 810.091 61.4353 810.091 64.9199H773.468C773.604 61.9985 774.313 59.3153 775.598 56.8701L775.887 56.3408C777.478 53.4999 779.675 51.2458 782.478 49.5791C785.318 47.8746 788.576 47.0225 792.25 47.0225L792.906 47.0312ZM792.25 48.0225C788.737 48.0225 785.661 48.8353 782.992 50.4365L782.988 50.4385C780.336 52.0155 778.264 54.1417 776.759 56.8291L776.757 56.834C775.535 58.986 774.794 61.3443 774.541 63.9199H809.067C808.936 60.9986 808.224 58.4152 806.947 56.1494C805.522 53.6193 803.551 51.6491 801.021 50.2236L801.014 50.2188L801.006 50.2148C798.529 48.7642 795.621 48.0225 792.25 48.0225Z" fill="#D9D9D9"/>
<path d="M654.617 74.0674C654.617 65.2816 656.258 57.4973 659.571 50.7402L659.897 50.0879C663.466 43.1457 668.537 37.7202 675.104 33.834C681.686 29.8998 689.485 27.9541 698.458 27.9541C706.193 27.9541 713.013 29.3589 718.893 32.2012C724.763 35.0394 729.431 39.0382 732.869 44.1953C736.314 49.3631 738.199 55.413 738.548 62.3125L738.601 63.3633H713.845L713.719 62.5098C713.102 58.3389 711.484 55.0488 708.902 52.5732L708.892 52.5645L709.594 51.8516C712.186 54.3374 713.846 57.5727 714.574 61.5566L714.708 62.3633H737.549C737.219 55.8315 735.484 50.1172 732.346 45.2207L732.037 44.75C728.808 39.9062 724.459 36.1107 718.99 33.3643L718.458 33.1016C712.917 30.4229 706.487 29.0417 699.169 28.958L698.458 28.9541C689.632 28.9541 682.019 30.8668 675.617 34.6924C669.216 38.4803 664.272 43.7646 660.787 50.5449C657.34 57.2872 655.617 65.1282 655.617 74.0674L655.622 74.8926C655.725 83.3803 657.428 90.9083 660.73 97.4766C664.177 104.257 669.102 109.56 675.503 113.386C681.942 117.174 689.632 119.067 698.571 119.067C706.094 119.067 712.639 117.735 718.206 115.068L718.742 114.807C724.424 111.966 728.874 108.026 732.094 102.988C735.351 97.9126 737.17 92.0415 737.549 85.375H714.708C714.253 88.443 713.287 91.0756 711.81 93.2725L711.535 93.6709C710.139 95.6351 708.394 97.1505 706.299 98.2158C704.102 99.3522 701.621 99.9199 698.855 99.9199V98.9199C701.48 98.9199 703.8 98.3817 705.839 97.3271L705.846 97.3242C707.922 96.2685 709.63 94.739 710.978 92.7178L710.98 92.7148C712.361 90.661 713.282 88.1743 713.719 85.2285L713.845 84.375H738.607L738.547 85.4316C738.159 92.2513 736.296 98.2926 732.936 103.528C729.613 108.727 725.022 112.785 719.189 115.701C713.341 118.625 706.458 120.067 698.571 120.067C689.489 120.067 681.617 118.143 674.996 114.248L674.99 114.244C668.424 110.32 663.369 104.874 659.839 97.9297L659.837 97.9258C656.347 90.9851 654.617 83.0236 654.617 74.0674ZM680.219 73.7266C680.219 68.5775 680.902 64.1443 682.267 60.4268L682.549 59.6924C684.005 56.0704 685.993 53.2642 688.515 51.2734L689.026 50.8857C691.829 48.8405 695.106 47.8174 698.855 47.8174C703.287 47.8174 706.867 49.1624 709.594 51.8516L708.892 52.5635C706.381 50.088 703.069 48.8174 698.855 48.8174C695.299 48.8174 692.233 49.7831 689.615 51.6934L689.613 51.6953C687.031 53.5703 684.975 56.3383 683.477 60.0654C681.984 63.7792 681.219 68.3235 681.219 73.7266C681.219 79.2056 681.965 83.8081 683.421 87.5615C684.919 91.3249 686.994 94.1309 689.615 96.0439C692.233 97.9542 695.299 98.9199 698.855 98.9199V99.9199C695.34 99.9199 692.24 99.0215 689.557 97.2236L689.026 96.8516C686.223 94.8062 684.045 91.833 682.492 87.9316C680.977 84.0301 680.219 79.2947 680.219 73.7266Z" fill="#D9D9D9"/>
<path d="M640.062 61.7949C640.062 55.0147 638.812 49.1812 636.312 44.2949C633.891 39.5246 630.527 35.821 626.221 33.1836L625.802 32.9316C621.294 30.2801 616.01 28.9541 609.949 28.9541C603.472 28.9541 597.96 30.45 593.415 33.4424C588.87 36.3969 585.631 40.4125 583.699 45.4883H582.677V30.0908H559.608V117.363H583.812V66.9092C583.85 63.1593 584.551 59.9581 585.915 57.3066C587.317 54.6172 589.249 52.5714 591.711 51.1699C594.211 49.7686 597.089 49.0674 600.347 49.0674C605.195 49.0674 609.002 50.583 611.768 53.6133C614.533 56.6057 615.896 60.7724 615.858 66.1133V117.363H640.062V61.7949ZM583.677 43.0068C585.732 38.723 588.8 35.25 592.87 32.6045C597.607 29.4877 603.317 27.9541 609.949 27.9541C616.159 27.9541 621.624 29.3139 626.309 32.0693C630.989 34.8227 634.621 38.7567 637.202 43.8398H637.203C639.79 48.8964 641.062 54.893 641.062 61.7949V118.363H614.858V66.1064C614.895 60.9384 613.578 57.0457 611.033 54.292L611.028 54.2871C608.487 51.5026 604.97 50.0674 600.347 50.0674C597.239 50.0674 594.534 50.7332 592.204 52.0381L592.205 52.0391C589.924 53.3378 588.123 55.234 586.804 57.7627L586.805 57.7637C585.528 60.2457 584.849 63.2855 584.812 66.9189V118.363H558.608V29.0908H583.677V43.0068Z" fill="#D9D9D9"/>
<path d="M543.812 73.2725C543.812 65.8483 542.771 59.3711 540.688 53.8408C538.604 48.2726 535.688 43.6508 531.938 39.9766C528.457 36.5322 524.412 33.9031 519.8 32.0898L518.87 31.7383C513.908 29.8822 508.548 28.9541 502.79 28.9541C494.229 28.9541 486.767 30.8479 480.403 34.6357C474.078 38.4236 469.172 43.7081 465.688 50.4883C462.203 57.2686 460.461 65.1478 460.461 74.125L460.466 74.9844C460.571 83.8264 462.312 91.5134 465.688 98.0449C469.172 104.749 474.135 109.939 480.574 113.613C487.051 117.25 494.779 119.067 503.756 119.067C510.728 119.067 516.9 118.037 522.272 115.976L522.79 115.772C528.32 113.538 532.828 110.431 536.312 106.454C539.835 102.439 542.165 97.7421 543.302 92.3633L520.915 90.8857C520.082 93.0827 518.869 94.9389 517.278 96.4541C515.687 97.9692 513.775 99.1057 511.54 99.8633C509.305 100.621 506.843 101 504.153 101V100C506.748 100 509.101 99.634 511.219 98.916C513.326 98.2016 515.111 97.138 516.589 95.7305C518.064 94.3256 519.196 92.5982 519.98 90.5312L520.242 89.8398L520.981 89.8877L544.519 91.4414L544.28 92.5703C543.11 98.1114 540.703 102.965 537.064 107.112C533.464 111.221 528.822 114.413 523.165 116.699L523.161 116.701C517.528 118.954 511.053 120.067 503.756 120.067C494.643 120.067 486.74 118.221 480.085 114.485L480.079 114.481C473.469 110.71 468.373 105.378 464.801 98.5059L464.8 98.5039C461.228 91.5925 459.461 83.4555 459.461 74.125C459.461 65.0169 461.229 56.9761 464.799 50.0312C468.366 43.091 473.398 37.6655 479.89 33.7783L479.893 33.7764C486.434 29.883 494.078 27.9541 502.79 27.9541C508.657 27.9541 514.136 28.9003 519.22 30.8018C524.348 32.6678 528.824 35.4886 532.638 39.2627L532.998 39.6211C536.691 43.3498 539.562 47.98 541.623 53.4883C543.758 59.1559 544.812 65.7576 544.812 73.2725V80.9199H485.396C485.504 84.7105 486.268 87.9683 487.66 90.7188C489.204 93.6955 491.363 95.9725 494.143 97.5762C496.919 99.1777 500.243 99.9999 504.153 100V101L503.4 100.989C499.914 100.896 496.848 100.15 494.203 98.752L493.643 98.4424C490.688 96.7378 488.396 94.3138 486.768 91.1699C485.177 88.026 484.381 84.2947 484.381 79.9766V79.9199H543.812V73.2725ZM503.844 47.0312C507.095 47.1223 509.964 47.8957 512.449 49.3516C515.139 50.8667 517.241 52.9698 518.756 55.6592C520.271 58.3485 521.028 61.4353 521.028 64.9199H484.405C484.541 61.9985 485.251 59.3153 486.535 56.8701L486.824 56.3408C488.415 53.4999 490.612 51.2458 493.415 49.5791C496.256 47.8746 499.513 47.0225 503.188 47.0225L503.844 47.0312ZM503.188 48.0225C499.674 48.0225 496.599 48.8353 493.93 50.4365L493.926 50.4385C491.274 52.0155 489.201 54.1417 487.696 56.8291L487.694 56.834C486.473 58.986 485.732 61.3443 485.479 63.9199H520.005C519.873 60.9986 519.161 58.4152 517.885 56.1494C516.459 53.6193 514.488 51.6491 511.958 50.2236L511.951 50.2188L511.943 50.2148C509.467 48.7642 506.559 48.0225 503.188 48.0225Z" fill="#D9D9D9"/>
<path d="M444.594 1H420.39V117.363H444.594V1ZM445.594 118.363H419.39V0H445.594V118.363Z" fill="#D9D9D9"/>
<path d="M401 1H376.796V117.363H401V1ZM402 118.363H375.796V0H402V118.363Z" fill="#D9D9D9"/>
<path d="M361 73.2725C361 65.8483 359.958 59.3711 357.875 53.8408C355.792 48.2726 352.875 43.6508 349.125 39.9766C345.645 36.5322 341.599 33.9031 336.987 32.0898L336.058 31.7383C331.095 29.8822 325.735 28.9541 319.978 28.9541C311.417 28.9541 303.954 30.8479 297.591 34.6357C291.265 38.4236 286.36 43.7081 282.875 50.4883C279.39 57.2686 277.648 65.1478 277.648 74.125L277.653 74.9844C277.759 83.8264 279.499 91.5134 282.875 98.0449C286.36 104.749 291.322 109.939 297.762 113.613C304.239 117.25 311.966 119.067 320.943 119.067C327.915 119.067 334.088 118.037 339.46 115.976L339.978 115.772C345.508 113.538 350.015 110.431 353.5 106.454C357.023 102.439 359.353 97.7421 360.489 92.3633L338.103 90.8857C337.269 93.0827 336.057 94.9389 334.466 96.4541C332.875 97.9692 330.962 99.1057 328.728 99.8633C326.493 100.621 324.03 101 321.341 101V100C323.936 100 326.288 99.634 328.406 98.916C330.514 98.2016 332.298 97.138 333.776 95.7305C335.251 94.3256 336.384 92.5982 337.168 90.5312L337.43 89.8398L338.169 89.8877L361.706 91.4414L361.468 92.5703C360.297 98.1114 357.891 102.965 354.252 107.112C350.652 111.221 346.009 114.413 340.353 116.699L340.349 116.701C334.716 118.954 328.241 120.067 320.943 120.067C311.83 120.067 303.927 118.221 297.272 114.485L297.267 114.481C290.657 110.71 285.56 105.378 281.988 98.5059L281.987 98.5039C278.415 91.5925 276.648 83.4555 276.648 74.125C276.648 65.0169 278.417 56.9761 281.986 50.0312C285.553 43.091 290.586 37.6655 297.077 33.7783L297.08 33.7764C303.621 29.883 311.266 27.9541 319.978 27.9541C325.844 27.9541 331.324 28.9003 336.407 30.8018C341.536 32.6678 346.011 35.4886 349.825 39.2627L350.186 39.6211C353.879 43.3498 356.749 47.98 358.811 53.4883C360.946 59.1559 362 65.7576 362 73.2725V80.9199H302.583C302.691 84.7105 303.456 87.9683 304.848 90.7188C306.392 93.6955 308.55 95.9725 311.33 97.5762C314.106 99.1777 317.43 99.9999 321.341 100V101L320.588 100.989C317.102 100.896 314.036 100.15 311.391 98.752L310.83 98.4424C307.876 96.7378 305.584 94.3138 303.955 91.1699C302.364 88.026 301.568 84.2947 301.568 79.9766V79.9199H361V73.2725ZM321.031 47.0312C324.282 47.1223 327.151 47.8957 329.637 49.3516C332.326 50.8667 334.428 52.9698 335.943 55.6592C337.458 58.3485 338.216 61.4353 338.216 64.9199H301.593C301.729 61.9985 302.438 59.3153 303.723 56.8701L304.012 56.3408C305.603 53.4999 307.8 51.2458 310.603 49.5791C313.443 47.8746 316.701 47.0225 320.375 47.0225L321.031 47.0312ZM320.375 48.0225C316.862 48.0225 313.786 48.8353 311.117 50.4365L311.113 50.4385C308.461 52.0155 306.389 54.1417 304.884 56.8291L304.882 56.834C303.66 58.986 302.919 61.3443 302.666 63.9199H337.192C337.061 60.9986 336.349 58.4152 335.072 56.1494C333.647 53.6193 331.676 51.6491 329.146 50.2236L329.139 50.2188L329.131 50.2148C326.654 48.7642 323.746 48.0225 320.375 48.0225Z" fill="#D9D9D9"/>
<path d="M182.742 74.0674C182.742 65.2816 184.383 57.4973 187.696 50.7402L188.022 50.0879C191.591 43.1457 196.662 37.7202 203.229 33.834C209.811 29.8998 217.61 27.9541 226.583 27.9541C234.318 27.9541 241.138 29.3589 247.018 32.2012C252.888 35.0394 257.556 39.0382 260.994 44.1953C264.439 49.3631 266.324 55.413 266.673 62.3125L266.726 63.3633H241.97L241.844 62.5098C241.227 58.3389 239.609 55.0488 237.027 52.5732L237.017 52.5645L237.719 51.8516C240.311 54.3374 241.971 57.5727 242.699 61.5566L242.833 62.3633H265.674C265.344 55.8315 263.609 50.1172 260.471 45.2207L260.162 44.75C256.933 39.9062 252.584 36.1107 247.115 33.3643L246.583 33.1016C241.042 30.4229 234.612 29.0417 227.294 28.958L226.583 28.9541C217.757 28.9541 210.144 30.8668 203.742 34.6924C197.341 38.4803 192.397 43.7646 188.912 50.5449C185.465 57.2872 183.742 65.1282 183.742 74.0674L183.747 74.8926C183.85 83.3803 185.553 90.9083 188.855 97.4766C192.302 104.257 197.227 109.56 203.628 113.386C210.067 117.174 217.757 119.067 226.696 119.067C234.219 119.067 240.764 117.735 246.331 115.068L246.867 114.807C252.549 111.966 256.999 108.026 260.219 102.988C263.476 97.9126 265.295 92.0415 265.674 85.375H242.833C242.378 88.443 241.412 91.0756 239.935 93.2725L239.66 93.6709C238.264 95.6351 236.519 97.1505 234.424 98.2158C232.227 99.3522 229.746 99.9199 226.98 99.9199V98.9199C229.605 98.9199 231.925 98.3817 233.964 97.3271L233.971 97.3242C236.047 96.2685 237.755 94.739 239.103 92.7178L239.105 92.7148C240.486 90.661 241.407 88.1743 241.844 85.2285L241.97 84.375H266.732L266.672 85.4316C266.284 92.2513 264.421 98.2926 261.061 103.528C257.738 108.727 253.147 112.785 247.314 115.701C241.466 118.625 234.583 120.067 226.696 120.067C217.614 120.067 209.742 118.143 203.121 114.248L203.115 114.244C196.549 110.32 191.494 104.874 187.964 97.9297L187.962 97.9258C184.472 90.9851 182.742 83.0236 182.742 74.0674ZM208.344 73.7266C208.344 68.5775 209.027 64.1443 210.392 60.4268L210.674 59.6924C212.13 56.0704 214.118 53.2642 216.64 51.2734L217.151 50.8857C219.954 48.8405 223.231 47.8174 226.98 47.8174C231.412 47.8174 234.992 49.1624 237.719 51.8516L237.017 52.5635C234.506 50.088 231.194 48.8174 226.98 48.8174C223.424 48.8174 220.358 49.7831 217.74 51.6934L217.738 51.6953C215.156 53.5703 213.1 56.3383 211.602 60.0654C210.109 63.7792 209.344 68.3235 209.344 73.7266C209.344 79.2056 210.09 83.8081 211.546 87.5615C213.044 91.3249 215.119 94.1309 217.74 96.0439C220.358 97.9542 223.424 98.9199 226.98 98.9199V99.9199C223.465 99.9199 220.365 99.0215 217.682 97.2236L217.151 96.8516C214.348 94.8062 212.17 91.833 210.617 87.9316C209.102 84.0301 208.344 79.2947 208.344 73.7266Z" fill="#D9D9D9"/>
<path d="M119.347 29.0908L119.627 29.626L134.775 58.4707L150.588 29.0908H177.75L151.89 73.7197L178.455 118.363H151.399L134.771 89.2227L118.418 118.363H91.0762L117.584 73.7178L92.0166 29.0908H119.347ZM93.7422 30.0908L118.742 73.7266L92.833 117.363H117.833L134.765 87.1924L151.98 117.363H176.696L150.73 73.7266L176.015 30.0908H151.185L134.765 60.6016L118.742 30.0908H93.7422Z" fill="#D9D9D9"/>
<path d="M79.6367 97.0791H25.6025V69.2949H75.375V49.0107H25.6025V21.2842H79.4092V1H1V117.363H79.6367V97.0791ZM80.4092 22.2842H26.6025V48.0107H76.375V70.2949H26.6025V96.0791H80.6367V118.363H0V0H80.4092V22.2842Z" fill="#D9D9D9"/>
</svg>
