<svg width="553" height="158" viewBox="0 0 553 158" fill="none" xmlns="http://www.w3.org/2000/svg">
<path d="M484.409 156.739C481.341 156.739 478.462 156.493 475.773 156C473.121 155.546 470.924 154.959 469.182 154.239L474.636 136.171C477.477 137.042 480.034 137.516 482.307 137.591C484.617 137.667 486.606 137.137 488.273 136C489.977 134.864 491.36 132.932 492.42 130.205L493.841 126.512L462.534 36.739H487.988L506.057 100.83H506.966L525.204 36.739H550.829L516.909 133.444C515.28 138.141 513.064 142.231 510.261 145.716C507.496 149.239 503.992 151.947 499.75 153.841C495.507 155.773 490.394 156.739 484.409 156.739Z" fill="white"/>
<path d="M453.699 36.739V54.9209H401.142V36.739H453.699ZM413.074 15.83H437.278V97.1936C437.278 99.4285 437.619 101.171 438.301 102.421C438.983 103.633 439.93 104.485 441.142 104.978C442.392 105.47 443.831 105.716 445.46 105.716C446.596 105.716 447.733 105.622 448.869 105.432C450.005 105.205 450.877 105.035 451.483 104.921L455.29 122.932C454.077 123.311 452.373 123.747 450.176 124.239C447.979 124.769 445.309 125.091 442.165 125.205C436.331 125.432 431.218 124.656 426.824 122.875C422.468 121.095 419.077 118.33 416.653 114.58C414.229 110.83 413.036 106.095 413.074 100.375V15.83Z" fill="white"/>
<path d="M363.684 124.012V36.739H387.889V124.012H363.684ZM375.844 25.489C372.245 25.489 369.158 24.2958 366.582 21.9095C364.044 19.4852 362.775 16.5875 362.775 13.2163C362.775 9.88294 364.044 7.0231 366.582 4.63674C369.158 2.21249 372.245 1.00037 375.844 1.00037C379.442 1.00037 382.51 2.21249 385.048 4.63674C387.624 7.0231 388.912 9.88294 388.912 13.2163C388.912 16.5875 387.624 19.4852 385.048 21.9095C382.51 24.2958 379.442 25.489 375.844 25.489Z" fill="white"/>
<path d="M344.295 7.64807V124.012H320.091V7.64807H344.295Z" fill="white"/>
<path d="M252.165 125.659C246.596 125.659 241.634 124.694 237.278 122.762C232.922 120.792 229.475 117.894 226.937 114.069C224.437 110.205 223.187 105.394 223.187 99.6367C223.187 94.7883 224.077 90.7163 225.858 87.4208C227.638 84.1254 230.062 81.4739 233.13 79.4663C236.199 77.4587 239.683 75.9436 243.585 74.9208C247.524 73.8981 251.653 73.1784 255.971 72.7617C261.047 72.2314 265.138 71.739 268.244 71.2845C271.35 70.7921 273.604 70.0724 275.005 69.1254C276.407 68.1784 277.108 66.7769 277.108 64.9208V64.5799C277.108 60.9814 275.971 58.1974 273.699 56.2277C271.464 54.258 268.282 53.2731 264.153 53.2731C259.797 53.2731 256.331 54.239 253.755 56.1708C251.18 58.0648 249.475 60.4511 248.642 63.3299L226.255 61.5117C227.392 56.2087 229.627 51.6254 232.96 47.7617C236.293 43.8602 240.593 40.8678 245.858 38.7845C251.161 36.6633 257.297 35.6027 264.267 35.6027C269.115 35.6027 273.755 36.1708 278.187 37.3072C282.657 38.4436 286.615 40.2049 290.062 42.5913C293.547 44.9777 296.293 48.0458 298.301 51.7958C300.308 55.508 301.312 59.9587 301.312 65.1481V124.012H278.358V111.909H277.676C276.274 114.637 274.399 117.042 272.051 119.125C269.702 121.171 266.88 122.781 263.585 123.955C260.29 125.091 256.483 125.659 252.165 125.659ZM259.096 108.955C262.657 108.955 265.801 108.254 268.528 106.853C271.255 105.413 273.396 103.481 274.949 101.057C276.502 98.633 277.278 95.8867 277.278 92.8186V83.5572C276.521 84.0496 275.479 84.5042 274.153 84.9208C272.865 85.2996 271.407 85.6595 269.778 86.0004C268.149 86.3034 266.521 86.5875 264.892 86.8527C263.263 87.0799 261.786 87.2883 260.46 87.4777C257.619 87.8943 255.138 88.5572 253.017 89.4663C250.896 90.3754 249.248 91.6064 248.074 93.1595C246.899 94.6746 246.312 96.5686 246.312 98.8413C246.312 102.137 247.505 104.656 249.892 106.398C252.316 108.103 255.384 108.955 259.096 108.955Z" fill="white"/>
<path d="M183.713 86.8526V36.739H207.917V124.012H184.679V108.159H183.77C181.8 113.273 178.523 117.383 173.94 120.489C169.395 123.595 163.845 125.148 157.292 125.148C151.459 125.148 146.327 123.822 141.895 121.171C137.463 118.519 133.997 114.75 131.497 109.864C129.035 104.978 127.785 99.1254 127.747 92.3072V36.739H151.951V87.989C151.989 93.1405 153.372 97.2125 156.099 100.205C158.827 103.197 162.482 104.694 167.065 104.694C169.982 104.694 172.709 104.031 175.247 102.705C177.785 101.341 179.83 99.3337 181.383 96.6822C182.974 94.0307 183.751 90.7542 183.713 86.8526Z" fill="white"/>
<path d="M46.9658 83.5571H67.8749L78.3862 97.0799L88.7271 109.125L108.216 133.557H85.2612L71.8521 117.08L64.9771 107.307L46.9658 83.5571ZM109.977 65.8299C109.977 78.5193 107.572 89.3147 102.761 98.2162C97.9885 107.118 91.4734 113.917 83.2158 118.614C74.9961 123.273 65.7537 125.603 55.4885 125.603C45.1476 125.603 35.8673 123.254 27.6476 118.557C19.4279 113.86 12.9317 107.061 8.15897 98.1594C3.38624 89.2579 0.999878 78.4814 0.999878 65.8299C0.999878 53.1405 3.38624 42.345 8.15897 33.4435C12.9317 24.542 19.4279 17.7617 27.6476 13.1026C35.8673 8.40562 45.1476 6.05713 55.4885 6.05713C65.7537 6.05713 74.9961 8.40562 83.2158 13.1026C91.4734 17.7617 97.9885 24.542 102.761 33.4435C107.572 42.345 109.977 53.1405 109.977 65.8299ZM85.034 65.8299C85.034 57.6102 83.8029 50.6783 81.3408 45.0344C78.9165 39.3905 75.4885 35.1102 71.0567 32.1935C66.6249 29.2768 61.4355 27.8185 55.4885 27.8185C49.5415 27.8185 44.3522 29.2768 39.9203 32.1935C35.4885 35.1102 32.0415 39.3905 29.5794 45.0344C27.1552 50.6783 25.9431 57.6102 25.9431 65.8299C25.9431 74.0496 27.1552 80.9814 29.5794 86.6253C32.0415 92.2693 35.4885 96.5496 39.9203 99.4662C44.3522 102.383 49.5415 103.841 55.4885 103.841C61.4355 103.841 66.6249 102.383 71.0567 99.4662C75.4885 96.5496 78.9165 92.2693 81.3408 86.6253C83.8029 80.9814 85.034 74.0496 85.034 65.8299Z" fill="white"/>
<path d="M488.745 35.7393L506.514 98.7646L524.449 35.7393H552.24L517.853 133.774C516.192 138.562 513.925 142.752 511.047 146.333C508.178 149.989 504.542 152.797 500.157 154.755L500.156 154.754C495.754 156.757 490.494 157.739 484.409 157.739C481.292 157.739 478.356 157.489 475.604 156.985C472.907 156.523 470.633 155.92 468.8 155.163L467.963 154.817L473.969 134.92L474.93 135.215C477.71 136.068 480.178 136.52 482.34 136.592L482.734 136.599C484.69 136.599 486.334 136.111 487.709 135.174L487.718 135.168C489.192 134.185 490.472 132.457 491.488 129.843L492.775 126.494L461.126 35.7393H488.745ZM462.534 36.7393L493.841 126.512L492.42 130.205C491.359 132.932 489.977 134.864 488.272 136C486.606 137.136 484.617 137.667 482.307 137.591C480.034 137.515 477.477 137.042 474.636 136.171L469.182 154.239C470.924 154.959 473.121 155.545 475.772 156C478.126 156.431 480.624 156.674 483.268 156.728L484.409 156.739C490.394 156.739 495.508 155.773 499.75 153.841C503.992 151.947 507.496 149.238 510.261 145.716C513.064 142.231 515.28 138.14 516.909 133.443L550.829 36.7393H525.204L506.966 100.83H506.057L487.988 36.7393H462.534Z" fill="#D9D9D9"/>
<path d="M437.278 97.1934V54.9209H453.698V36.7393H437.278V15.8301H413.073V36.7393H401.142V54.9209H413.073V100.375C413.035 106.095 414.229 110.83 416.653 114.58C419.077 118.33 422.467 121.095 426.823 122.875C431.217 124.655 436.332 125.432 442.165 125.205C445.309 125.091 447.979 124.77 450.176 124.239C452.098 123.808 453.643 123.421 454.812 123.077L455.29 122.933L451.482 104.921C450.876 105.035 450.005 105.205 448.869 105.433L448.443 105.499C447.449 105.644 446.454 105.716 445.46 105.716V104.716C446.537 104.716 447.614 104.626 448.693 104.446C449.821 104.221 450.69 104.052 451.299 103.938L452.259 103.758L456.456 123.615L455.588 123.887C454.337 124.278 452.601 124.72 450.395 125.215L450.394 125.214C448.115 125.762 445.381 126.088 442.202 126.203L442.203 126.204C436.26 126.436 431 125.646 426.448 123.802L426.445 123.801C421.911 121.948 418.355 119.054 415.813 115.123C413.257 111.169 412.034 106.229 412.073 100.369V55.9209H400.142V35.7393H412.073V14.8301H438.278V35.7393H454.698V55.9209H438.278V97.1934C438.278 99.3394 438.608 100.888 439.173 101.931L439.283 102.119C439.848 103.042 440.588 103.671 441.513 104.048C442.623 104.485 443.933 104.716 445.46 104.716V105.716C443.831 105.716 442.392 105.47 441.142 104.978C439.93 104.485 438.983 103.633 438.301 102.421C437.662 101.249 437.322 99.6441 437.282 97.6064L437.278 97.1934Z" fill="#D9D9D9"/>
<path d="M387.889 36.7393H363.685V124.012H387.889V36.7393ZM388.912 13.2158C388.912 9.88267 387.623 7.02297 385.048 4.63672C382.669 2.36399 379.823 1.15662 376.512 1.01465L375.844 1C372.245 1 369.158 2.21247 366.582 4.63672C364.044 7.02296 362.776 9.88272 362.775 13.2158C362.775 16.5869 364.044 19.485 366.582 21.9092C368.997 24.1464 371.861 25.3348 375.175 25.4746L375.844 25.4893C379.442 25.4892 382.51 24.2955 385.048 21.9092C387.543 19.5608 388.83 16.7683 388.908 13.5312L388.912 13.2158ZM388.889 125.012H362.685V35.7393H388.889V125.012ZM389.912 13.2158C389.912 16.763 388.586 19.8368 385.989 22.3916L385.733 22.6377C383.003 25.2047 379.687 26.4892 375.844 26.4893C372 26.4893 368.668 25.2049 365.902 22.6426L365.897 22.6377L365.892 22.6328C363.165 20.0286 361.775 16.8725 361.775 13.2158C361.776 9.59326 363.168 6.4738 365.896 3.9082C368.661 1.30603 371.995 0 375.844 0C379.689 4.00028e-05 383.005 1.30519 385.732 3.9082C388.497 6.47145 389.912 9.59011 389.912 13.2158Z" fill="#D9D9D9"/>
<path d="M344.295 7.64844H320.091V124.012H344.295V7.64844ZM345.295 125.012H319.091V6.64844H345.295V125.012Z" fill="#D9D9D9"/>
<path d="M222.188 99.6367C222.188 94.6698 223.099 90.4235 224.978 86.9453C226.835 83.507 229.373 80.7305 232.583 78.6299C235.75 76.5577 239.336 75.0005 243.331 73.9531H243.334C247.078 72.9812 250.986 72.2797 255.059 71.8486L255.875 71.7666C260.941 71.2373 265.014 70.7464 268.1 70.2949C271.158 69.8092 273.231 69.1175 274.445 68.2969C275.541 67.5562 276.107 66.4828 276.107 64.9209V64.5801C276.107 61.2092 275.054 58.7257 273.044 56.9834L273.037 56.9775C271.045 55.2219 268.132 54.2735 264.153 54.2734C259.938 54.2734 256.706 55.2077 254.355 56.9707L254.348 56.9766C251.937 58.7493 250.37 60.9559 249.603 63.6084L249.375 64.3926L225.039 62.416L225.277 61.3018C226.447 55.8454 228.753 51.107 232.203 47.1084C235.437 43.3247 239.54 40.3802 244.488 38.2666L245.49 37.8545C250.933 35.6779 257.199 34.6026 264.267 34.6025C269.193 34.6025 273.916 35.18 278.433 36.3379C283.006 37.5007 287.078 39.3089 290.632 41.7695C294.247 44.246 297.099 47.433 299.181 51.3203L299.375 51.6865C301.347 55.4976 302.312 59.9968 302.312 65.1484V125.012H277.357V114.466C276.082 116.456 274.534 118.259 272.715 119.873L272.708 119.88C270.254 122.017 267.32 123.685 263.921 124.896L263.911 124.9C260.489 126.08 256.569 126.659 252.165 126.659C246.481 126.659 241.376 125.673 236.873 123.676L236.866 123.673C232.346 121.629 228.751 118.61 226.104 114.621L226.098 114.612L226.938 114.068C229.475 117.894 232.922 120.792 237.278 122.762C241.362 124.573 245.979 125.535 251.128 125.648L252.165 125.659C256.213 125.659 259.812 125.16 262.961 124.161L263.585 123.955C266.88 122.781 269.702 121.17 272.051 119.125C274.399 117.042 276.274 114.636 277.676 111.909H278.357V124.012H301.312V65.1484C301.312 59.959 300.308 55.508 298.301 51.7959C296.419 48.2803 293.887 45.364 290.707 43.0469L290.062 42.5908C286.831 40.3536 283.15 38.6659 279.02 37.5273L278.188 37.3076C273.756 36.1713 269.115 35.6025 264.267 35.6025C257.297 35.6026 251.16 36.663 245.857 38.7842C240.592 40.8675 236.293 43.8603 232.96 47.7617C229.627 51.6253 227.392 56.2087 226.256 61.5117L248.642 63.3301C249.423 60.631 250.97 58.3646 253.283 56.5312L253.756 56.1709C256.332 54.2392 259.797 53.2734 264.153 53.2734L264.916 53.2842C268.676 53.3995 271.603 54.3811 273.698 56.2275C275.971 58.1972 277.107 60.9816 277.107 64.5801V64.9209L277.1 65.2637C277.017 66.9502 276.319 68.2373 275.006 69.125L274.732 69.2998C273.319 70.1609 271.156 70.8225 268.244 71.2842C265.138 71.7387 261.047 72.2314 255.972 72.7617L255.164 72.8438C251.138 73.2699 247.278 73.9621 243.585 74.9209C239.684 75.9436 236.199 77.4584 233.131 79.4658L232.562 79.8506C229.762 81.8081 227.526 84.3315 225.857 87.4209L225.534 88.0479C223.97 91.2283 223.188 95.0913 223.188 99.6367L223.202 100.705C223.349 105.992 224.594 110.446 226.938 114.068L226.098 114.612C223.47 110.551 222.188 105.539 222.188 99.6367ZM276.278 92.8184V85.2041C275.728 85.4418 275.119 85.6659 274.453 85.875L274.444 85.8779L274.436 85.8799C273.117 86.2677 271.632 86.6344 269.983 86.9795L269.972 86.9814L269.961 86.9834C268.325 87.2878 266.689 87.5735 265.053 87.8398L265.041 87.8418L265.03 87.8428C263.402 88.0699 261.926 88.2786 260.602 88.4678L260.601 88.4668C257.827 88.8738 255.435 89.5183 253.411 90.3857C251.42 91.2391 249.923 92.372 248.871 93.7627L248.864 93.7725C247.85 95.0812 247.313 96.7475 247.312 98.8408C247.312 101.855 248.382 104.053 250.472 105.583C252.689 107.14 255.54 107.955 259.097 107.955V108.955L258.408 108.945C255.23 108.852 252.545 108.106 250.354 106.708L249.892 106.398C247.654 104.765 246.466 102.449 246.326 99.4502L246.312 98.8408C246.313 96.5683 246.899 94.6742 248.073 93.1592C249.247 91.6062 250.895 90.3749 253.017 89.4658C255.138 88.5567 257.619 87.8942 260.46 87.4775C261.786 87.2882 263.263 87.0798 264.892 86.8525C265.706 86.72 266.521 86.5825 267.335 86.4404L269.778 86C271 85.7443 272.125 85.4781 273.155 85.2012L274.153 84.9209C275.479 84.5043 276.521 84.05 277.278 83.5576V92.8184L277.27 93.3896C277.179 96.2285 276.404 98.7848 274.948 101.058L274.65 101.506C273.126 103.721 271.085 105.503 268.528 106.853L268.012 107.107C265.406 108.339 262.435 108.955 259.097 108.955V107.955C262.52 107.955 265.5 107.282 268.062 105.967C270.648 104.602 272.653 102.786 274.106 100.518C275.549 98.2651 276.278 95.7085 276.278 92.8184Z" fill="#D9D9D9"/>
<path d="M151.951 36.7393H127.747V92.3076C127.785 99.1256 129.035 104.978 131.497 109.864C133.997 114.75 137.463 118.519 141.895 121.171C146.188 123.74 151.139 125.064 156.748 125.145L157.292 125.148C163.845 125.148 169.395 123.595 173.94 120.489C178.524 117.383 181.8 113.273 183.77 108.159H184.679V124.012H207.917V36.7393H183.713V86.8525C183.751 90.7541 182.975 94.0311 181.384 96.6826C179.831 99.3341 177.785 101.341 175.247 102.705L174.769 102.945C172.367 104.11 169.8 104.693 167.065 104.693V103.693C169.824 103.693 172.392 103.068 174.784 101.818C177.144 100.548 179.056 98.677 180.521 96.1768L180.525 96.168C181.999 93.7112 182.749 90.6271 182.713 86.8623V35.7393H208.917V125.012H183.679V110.861C181.595 115.096 178.532 118.583 174.503 121.313L174.504 121.314C169.763 124.554 164.007 126.148 157.292 126.148C151.302 126.148 145.987 124.785 141.381 122.029C136.778 119.275 133.186 115.362 130.606 110.319L130.604 110.314C128.057 105.26 126.786 99.2479 126.747 92.3125V35.7393H152.951V87.9814C152.988 92.9556 154.318 96.7667 156.838 99.5312C159.35 102.287 162.722 103.693 167.065 103.693V104.693L166.639 104.689C162.396 104.602 158.969 103.199 156.357 100.481L156.1 100.205C153.372 97.2127 151.989 93.1406 151.951 87.9893V36.7393Z" fill="#D9D9D9"/>
<path d="M109.978 65.8301C109.978 53.1407 107.571 42.3449 102.761 33.4434C97.988 24.542 91.4733 17.7616 83.2158 13.1025C75.2531 8.55241 66.3305 6.20671 56.4482 6.06445L55.4883 6.05762C45.1474 6.05764 35.8671 8.40559 27.6475 13.1025C19.4279 17.7616 12.9319 24.542 8.15918 33.4434L7.71875 34.2832C3.23951 43.0213 1 53.537 1 65.8301L1.00684 67.0107C1.15135 79.1532 3.53567 89.5359 8.15918 98.1592C12.9319 107.061 19.4278 113.861 27.6475 118.558C35.8671 123.255 45.1475 125.603 55.4883 125.603C62.8101 125.603 69.6114 124.416 75.8926 122.046L85.2607 133.558H108.216L91.5381 112.648C95.9835 108.688 99.7251 103.878 102.761 98.2158C107.421 89.5924 109.824 79.1919 109.97 67.0137L109.978 65.8301ZM84.0342 65.8301C84.0342 57.7044 82.8158 50.9177 80.4238 45.4346L80.4219 45.4287C78.0624 39.9358 74.7504 35.8221 70.5068 33.0293C66.2575 30.2327 61.2643 28.8184 55.4883 28.8184C49.7123 28.8184 44.719 30.2328 40.4697 33.0293C36.2247 35.8232 32.8934 39.9393 30.4961 45.4346L30.4951 45.4336C28.1406 50.9175 26.9434 57.7051 26.9434 65.8301C26.9434 73.9549 28.1417 80.7418 30.4961 86.2256L30.7236 86.7363C33.1026 91.9766 36.3572 95.9243 40.4697 98.6309C44.719 101.427 49.7123 102.841 55.4883 102.841V103.841C49.5414 103.841 44.3517 102.382 39.9199 99.4658C35.4883 96.5492 32.0411 92.2687 29.5791 86.625C27.3065 81.334 26.0991 74.9111 25.957 67.3564L25.9434 65.8301C25.9434 57.6104 27.1549 50.6781 29.5791 45.0342C32.0412 39.3904 35.4882 35.11 39.9199 32.1934C44.3517 29.2767 49.5414 27.8184 55.4883 27.8184C61.4352 27.8184 66.6248 29.2767 71.0566 32.1934C75.4884 35.11 78.9166 39.3903 81.3408 45.0342C83.8029 50.6781 85.0342 57.6104 85.0342 65.8301L85.0195 67.3564C84.8752 74.9111 83.6489 81.334 81.3408 86.625L81.1104 87.1504C79.8333 90.0047 78.2907 92.4986 76.4844 94.6338L67.875 83.5576H46.9658L61.8779 103.221C59.8552 103.633 57.7254 103.841 55.4883 103.841V102.841C57.0817 102.841 58.6157 102.733 60.0908 102.519L44.9521 82.5576H68.3643L76.5 93.0234C78.013 91.0553 79.3212 88.7929 80.4219 86.2305L80.4238 86.2256C82.8158 80.7425 84.0342 73.9558 84.0342 65.8301ZM110.978 65.8301C110.978 78.6423 108.547 89.6081 103.642 98.6875L103.643 98.6885C100.714 104.15 97.1336 108.842 92.9043 112.759L110.293 134.558H84.7861L75.5693 123.231C69.3582 125.48 62.6621 126.603 55.4883 126.603C44.99 126.603 35.5358 124.217 27.1514 119.426C18.7577 114.629 12.1326 107.687 7.27734 98.6318C2.40954 89.5529 2.25465e-05 78.6054 0 65.8301C0 53.0172 2.40922 42.0501 7.27734 32.9707C12.1329 23.9148 18.7588 16.9911 27.1543 12.2324C35.538 7.44245 44.9912 5.05764 55.4883 5.05762C65.9103 5.05762 75.3249 7.4428 83.707 12.2314C92.1396 16.9893 98.7846 23.9122 103.641 32.9678C108.548 42.0479 110.978 53.0161 110.978 65.8301Z" fill="#D9D9D9"/>
</svg>
