<svg width="407" height="121" viewBox="0 0 407 121" fill="none" xmlns="http://www.w3.org/2000/svg">
<path d="M404.054 30.0906V48.2724H351.497V30.0906H404.054ZM363.429 9.18152H387.634V90.5452C387.634 92.78 387.975 94.5224 388.656 95.7724C389.338 96.9846 390.285 97.8368 391.497 98.3293C392.747 98.8217 394.187 99.0679 395.815 99.0679C396.952 99.0679 398.088 98.9732 399.225 98.7838C400.361 98.5565 401.232 98.3861 401.838 98.2724L405.645 116.284C404.433 116.663 402.728 117.098 400.531 117.591C398.334 118.121 395.664 118.443 392.52 118.557C386.687 118.784 381.573 118.007 377.179 116.227C372.823 114.447 369.433 111.682 367.009 107.932C364.584 104.182 363.391 99.4467 363.429 93.727V9.18152Z" fill="white"/>
<path d="M340.404 54.9769L318.244 56.3406C317.866 54.4466 317.051 52.7421 315.801 51.2269C314.551 49.6739 312.904 48.4429 310.858 47.5338C308.851 46.5868 306.445 46.1133 303.642 46.1133C299.892 46.1133 296.729 46.9088 294.154 48.4997C291.578 50.0527 290.29 52.136 290.29 54.7497C290.29 56.833 291.123 58.5944 292.79 60.0338C294.457 61.4732 297.316 62.6285 301.369 63.4997L317.165 66.6815C325.65 68.4239 331.976 71.2269 336.142 75.0906C340.309 78.9542 342.392 84.03 342.392 90.3179C342.392 96.0376 340.707 101.056 337.335 105.375C334.002 109.693 329.419 113.064 323.585 115.488C317.79 117.875 311.104 119.068 303.529 119.068C291.976 119.068 282.771 116.663 275.915 111.852C269.097 107.003 265.101 100.413 263.926 92.0792L287.733 90.8292C288.453 94.352 290.195 97.0413 292.96 98.8974C295.726 100.716 299.267 101.625 303.585 101.625C307.828 101.625 311.237 100.81 313.813 99.1815C316.426 97.5148 317.752 95.3747 317.79 92.761C317.752 90.5641 316.824 88.7648 315.006 87.3633C313.188 85.9239 310.385 84.8254 306.597 84.0679L291.483 81.0565C282.96 79.3519 276.616 76.3974 272.449 72.1929C268.32 67.9883 266.256 62.6285 266.256 56.1133C266.256 50.5072 267.771 45.6777 270.801 41.6247C273.869 37.5716 278.169 34.4466 283.699 32.2497C289.267 30.0527 295.782 28.9542 303.244 28.9542C314.267 28.9542 322.941 31.2838 329.267 35.9429C335.631 40.6019 339.343 46.9466 340.404 54.9769Z" fill="white"/>
<path d="M224.225 80.2042V30.0906H248.429V117.363H225.19V101.511H224.281C222.312 106.625 219.035 110.735 214.452 113.841C209.906 116.947 204.357 118.5 197.804 118.5C191.971 118.5 186.838 117.174 182.406 114.522C177.975 111.871 174.509 108.102 172.009 103.216C169.547 98.3292 168.297 92.4769 168.259 85.6588V30.0906H192.463V81.3406C192.501 86.4921 193.884 90.5641 196.611 93.5565C199.338 96.5489 202.994 98.0451 207.577 98.0451C210.494 98.0451 213.221 97.3822 215.759 96.0565C218.297 94.6928 220.342 92.6853 221.895 90.0338C223.486 87.3822 224.262 84.1057 224.225 80.2042Z" fill="white"/>
<path d="M102.79 117.363V30.0906H126.256V45.3178H127.165C128.756 39.9012 131.426 35.8103 135.176 33.0451C138.926 30.2421 143.244 28.8406 148.131 28.8406C149.343 28.8406 150.65 28.9163 152.051 29.0678C153.453 29.2194 154.684 29.4277 155.744 29.6928V51.1701C154.608 50.8292 153.036 50.5262 151.029 50.261C149.021 49.9959 147.184 49.8633 145.517 49.8633C141.957 49.8633 138.775 50.6398 135.972 52.1928C133.207 53.708 131.01 55.8292 129.381 58.5565C127.79 61.2838 126.994 64.4277 126.994 67.9883V117.363H102.79Z" fill="white"/>
<path d="M1.00024 21.2837V0.999634H96.5684V21.2837H60.9434V117.363H36.6252V21.2837H1.00024Z" fill="white"/>
<path d="M387.634 90.5449V48.2725H404.054V30.0908H387.634V9.18164H363.429V30.0908H351.497V48.2725H363.429V93.7266C363.391 99.4463 364.585 104.182 367.009 107.932C369.433 111.681 372.823 114.446 377.179 116.227C381.573 118.007 386.687 118.784 392.521 118.557C395.664 118.443 398.334 118.121 400.531 117.591C402.453 117.16 403.999 116.773 405.167 116.429L405.646 116.284L401.838 98.2725C401.232 98.3861 400.361 98.557 399.225 98.7842L398.799 98.8506C397.804 98.9956 396.81 99.0674 395.815 99.0674V98.0674C396.892 98.0674 397.97 97.9771 399.049 97.7979C400.176 97.5724 401.046 97.4031 401.654 97.2891L402.614 97.1094L406.812 116.967L405.943 117.238C404.692 117.629 402.957 118.072 400.75 118.566L400.749 118.565C398.471 119.114 395.736 119.44 392.558 119.555L392.559 119.556C386.616 119.787 381.356 118.998 376.804 117.153L376.801 117.152C372.266 115.299 368.71 112.406 366.169 108.475C363.613 104.521 362.39 99.5808 362.429 93.7207V49.2725H350.497V29.0908H362.429V8.18164H388.634V29.0908H405.054V49.2725H388.634V90.5449C388.634 92.691 388.963 94.2398 389.528 95.2822L389.639 95.4707C390.203 96.3934 390.944 97.0225 391.868 97.3994C392.979 97.8362 394.288 98.0674 395.815 98.0674V99.0674C394.187 99.0674 392.747 98.8215 391.497 98.3291C390.285 97.8367 389.338 96.9845 388.656 95.7725C388.017 94.6005 387.678 92.9956 387.638 90.958L387.634 90.5449Z" fill="#D9D9D9"/>
<path d="M288.713 90.6289C289.384 93.9133 290.986 96.3644 293.51 98.0615C296.069 99.7441 299.404 100.625 303.585 100.625V101.625L302.785 101.614C299.092 101.515 295.993 100.719 293.488 99.2275L292.96 98.8975C290.195 97.0414 288.453 94.3517 287.733 90.8291L263.927 92.0791C265.101 100.412 269.097 107.003 275.915 111.852C282.771 116.662 291.975 119.067 303.528 119.067C311.104 119.067 317.79 117.875 323.585 115.488C329.418 113.064 334.002 109.693 337.335 105.375C340.601 101.192 342.286 96.3503 342.388 90.8516L342.393 90.3174C342.392 84.226 340.437 79.2723 336.526 75.4561L336.143 75.0908C331.976 71.2272 325.65 68.4241 317.165 66.6816L301.369 63.5C297.57 62.6833 294.819 61.6169 293.116 60.3008L292.79 60.0342C291.228 58.6848 290.398 57.052 290.3 55.1367L290.29 54.75C290.29 52.2997 291.422 50.315 293.686 48.7969L294.153 48.5C296.729 46.9091 299.893 46.1133 303.643 46.1133L304.163 46.1191C306.744 46.1746 308.976 46.6464 310.858 47.5342C312.904 48.4433 314.552 49.6736 315.802 51.2266C316.974 52.6469 317.762 54.2341 318.168 55.9873L318.244 56.3408L340.403 54.9766C339.376 47.1975 335.86 41.0002 329.856 36.3848L329.268 35.9424C322.942 31.2833 314.267 28.9541 303.244 28.9541C295.782 28.9541 289.267 30.0531 283.699 32.25C278.169 34.447 273.87 37.572 270.802 41.625L270.521 42.0068C267.678 45.9802 266.256 50.6824 266.256 56.1133C266.256 62.6284 268.321 67.9879 272.449 72.1924C276.616 76.3969 282.961 79.3521 291.483 81.0566L306.597 84.0674C310.385 84.825 313.188 85.9239 315.006 87.3633C316.824 88.7647 317.752 90.5639 317.79 92.7607C317.752 95.3744 316.426 97.515 313.812 99.1816L313.32 99.4775C310.808 100.909 307.562 101.625 303.585 101.625V100.625C307.709 100.625 310.914 99.8313 313.278 98.3359C315.662 96.8147 316.753 94.9637 316.789 92.7598C316.752 90.8908 315.98 89.3767 314.396 88.1553L314.385 88.1475C312.747 86.851 310.124 85.7935 306.4 85.0488L291.288 82.0371C282.657 80.3108 276.096 77.2942 271.738 72.8965L271.735 72.8936C267.403 68.4815 265.256 62.8602 265.256 56.1133C265.256 50.3159 266.827 45.2699 270 41.0254L270.004 41.0215C273.2 36.7995 277.659 33.5731 283.33 31.3203L283.332 31.3193C289.042 29.0665 295.686 27.9541 303.244 27.9541C314.395 27.9541 323.303 30.3095 329.857 35.1357C336.448 39.9608 340.299 46.5533 341.395 54.8457L341.535 55.9092L317.435 57.3926L317.264 56.5371C316.918 54.8078 316.177 53.2534 315.03 51.8633L315.022 51.8535C313.884 50.439 312.37 49.2998 310.452 48.4473L310.441 48.4434L310.432 48.4385C308.588 47.5688 306.336 47.1133 303.643 47.1133C300.034 47.1133 297.063 47.8781 294.679 49.3506L294.67 49.3564C292.341 50.7609 291.29 52.5454 291.29 54.75C291.29 56.5242 291.982 58.0157 293.443 59.2773C294.913 60.5463 297.564 61.6579 301.567 62.5195L317.362 65.7012L317.366 65.7021C325.943 67.4635 332.469 70.3206 336.822 74.3574C341.216 78.4315 343.392 83.7844 343.393 90.3174C343.393 96.2495 341.639 101.488 338.124 105.99L338.123 105.989C334.668 110.464 329.935 113.932 323.969 116.412L323.966 116.413C318.027 118.858 311.208 120.067 303.528 120.067C291.846 120.067 282.418 117.637 275.341 112.671L275.335 112.667C268.292 107.658 264.149 100.822 262.937 92.2188L262.784 91.1377L288.541 89.7852L288.713 90.6289Z" fill="#D9D9D9"/>
<path d="M192.463 30.0908H168.259V85.6592C168.297 92.4772 169.547 98.3296 172.009 103.216C174.509 108.102 177.975 111.871 182.406 114.522C186.7 117.091 191.651 118.416 197.26 118.496L197.804 118.5C204.357 118.5 209.907 116.947 214.452 113.841C219.035 110.735 222.312 106.624 224.281 101.511H225.19V117.363H248.429V30.0908H224.225V80.2041C224.262 84.1056 223.486 87.3827 221.896 90.0342L221.598 90.5234C220.084 92.9336 218.138 94.7783 215.759 96.0566L215.28 96.2969C212.879 97.462 210.311 98.0449 207.577 98.0449V97.0449C210.336 97.0449 212.904 96.4195 215.296 95.1699C217.656 93.8992 219.568 92.0285 221.032 89.5283L221.037 89.5195C222.511 87.0628 223.261 83.9787 223.225 80.2139V29.0908H249.429V118.363H224.19V104.213C222.107 108.447 219.043 111.934 215.015 114.665L215.016 114.666C210.274 117.906 204.519 119.5 197.804 119.5C191.814 119.5 186.499 118.137 181.893 115.381C177.29 112.627 173.698 108.713 171.118 103.671L171.115 103.666C168.569 98.612 167.297 92.5995 167.259 85.6641V29.0908H193.463V81.333C193.499 86.3071 194.83 90.1182 197.35 92.8828C199.861 95.6388 203.234 97.0449 207.577 97.0449V98.0449L207.15 98.041C202.908 97.9534 199.48 96.5508 196.869 93.833L196.611 93.5566C193.884 90.5643 192.501 86.4922 192.463 81.3408V30.0908Z" fill="#D9D9D9"/>
<path d="M155.744 29.6924C154.949 29.4936 154.057 29.3273 153.07 29.1924L152.052 29.0674C151.001 28.9537 150.002 28.8829 149.058 28.8545L148.131 28.8408C143.245 28.8408 138.927 30.2421 135.177 33.0449C131.427 35.81 128.756 39.9009 127.165 45.3174H126.256V30.0908H102.79V117.363H126.994V67.9883C126.994 64.4277 127.79 61.2839 129.381 58.5566C131.01 55.8294 133.207 53.7075 135.972 52.1924C138.775 50.6394 141.957 49.8633 145.518 49.8633L146.15 49.8691C147.646 49.8981 149.272 50.0288 151.028 50.2607C153.036 50.5259 154.608 50.8291 155.744 51.1699V29.6924ZM156.744 52.5137L155.457 52.1279C154.395 51.8094 152.883 51.5142 150.897 51.252C148.925 50.9914 147.132 50.8633 145.518 50.8633C142.107 50.8633 139.095 51.6054 136.456 53.0674L136.452 53.0693C133.848 54.4965 131.782 56.4884 130.244 59.0596C128.753 61.6151 127.994 64.5816 127.994 67.9883V118.363H101.79V29.0908H127.256V42.0137C128.935 37.8853 131.367 34.613 134.577 32.2441L134.948 31.9727C138.792 29.2157 143.198 27.8408 148.131 27.8408C149.384 27.8408 150.728 27.9185 152.159 28.0732C153.594 28.2284 154.872 28.4438 155.987 28.7227L156.744 28.9121V52.5137Z" fill="#D9D9D9"/>
<path d="M96.5684 21.2842V1H1V21.2842H36.625V117.363H60.9434V21.2842H96.5684ZM97.5684 22.2842H61.9434V118.363H35.625V22.2842H0V0H97.5684V22.2842Z" fill="#D9D9D9"/>
</svg>
